<!DOCTYPE svg PUBLIC "-//W3C//DTD SVG 20010904//EN" "http://www.w3.org/TR/2001/REC-SVG-20010904/DTD/svg10.dtd">
<svg version="1.0" xmlns="http://www.w3.org/2000/svg" width="800px" height="600px" viewBox="0 0 8000 6000" preserveAspectRatio="xMidYMid meet">
<g id="layer101" fill="#e65d25" stroke="none">
<path d="M1840 3985 l0 -55 360 0 360 0 0 -350 0 -350 55 0 55 0 0 405 0 405 -415 0 -415 0 0 -55z"/>
<path d="M5996 3340 c-41 -13 -85 -58 -98 -101 -16 -55 -7 -69 46 -69 40 0 47 4 60 29 24 45 63 54 96 21 19 -19 20 -33 20 -200 l0 -180 55 0 55 0 0 196 c0 220 -6 248 -66 285 -38 23 -124 33 -168 19z"/>
<path d="M6454 3334 c-136 -48 -200 -226 -131 -366 44 -90 121 -137 226 -138 73 0 124 17 171 58 41 34 85 104 73 116 -4 3 -30 6 -59 6 -41 0 -56 -4 -67 -20 -33 -47 -115 -63 -182 -36 -94 40 -103 211 -13 266 44 27 120 27 163 0 56 -34 52 -49 -13 -52 l-57 -3 0 -50 0 -50 95 -3 c150 -5 140 -15 140 144 l0 135 -52 -3 c-46 -3 -53 -6 -58 -28 -4 -18 -8 -21 -14 -11 -15 23 -89 51 -136 50 -25 0 -64 -7 -86 -15z"/>
<path d="M6885 3328 c-3 -7 -4 -119 -3 -248 l3 -235 61 -3 c41 -2 64 1 71 10 5 7 34 72 64 144 l53 131 61 -141 60 -141 65 0 65 0 0 245 0 245 -55 0 -55 0 -5 -144 -5 -144 -44 106 -45 107 -37 0 c-20 0 -41 -6 -46 -12 -6 -7 -28 -56 -49 -108 l-39 -95 -5 145 -5 145 -53 3 c-36 2 -54 -1 -57 -10z"/>
<path d="M620 2440 l0 -400 415 0 415 0 0 50 0 50 -360 0 -360 0 0 350 0 350 -55 0 -55 0 0 -400z"/>
</g>
<g id="layer102" fill="#88c240" stroke="none">
<path d="M610 3647 c0 -292 3 -396 12 -405 7 -7 34 -12 60 -12 l48 0 0 355 0 355 355 0 355 0 0 50 0 50 -415 0 -415 0 0 -393z"/>
<path d="M2560 2495 l0 -355 -355 0 -355 0 0 -50 0 -50 410 0 410 0 0 405 0 405 -55 0 -55 0 0 -355z"/>
</g>
<g id="layer103" fill="#faaf18" stroke="none">
<path d="M4530 3468 c-44 -23 -89 -86 -75 -108 3 -5 26 -10 50 -10 34 0 50 6 69 25 27 27 64 32 99 14 29 -16 37 -28 37 -62 l0 -28 -31 17 c-66 34 -152 14 -202 -45 -77 -91 -48 -234 56 -282 53 -24 93 -24 139 0 31 15 38 16 42 4 4 -10 19 -13 53 -11 l48 3 3 185 c2 175 1 187 -20 230 -31 61 -83 90 -163 90 -44 0 -73 -6 -105 -22z m129 -239 c85 -30 59 -159 -32 -159 -42 0 -87 41 -87 79 0 32 25 69 54 81 28 12 28 12 65 -1z"/>
<path d="M1326 3445 c-9 -25 -7 -798 3 -813 7 -11 52 -13 227 -10 245 4 276 11 373 82 102 75 155 190 155 336 0 188 -89 325 -254 392 -50 20 -76 22 -276 26 -199 3 -222 2 -228 -13z m462 -197 c29 -14 58 -40 77 -66 28 -41 30 -49 30 -142 0 -93 -2 -101 -30 -141 -48 -68 -101 -89 -239 -96 l-116 -6 0 243 0 243 116 -6 c93 -4 124 -10 162 -29z"/>
<path d="M3724 3331 c-63 -38 -70 -128 -13 -175 24 -20 41 -26 80 -26 28 0 59 5 70 10 17 9 19 7 19 -18 0 -52 -50 -71 -85 -32 -12 13 -31 20 -57 20 -48 0 -57 -19 -34 -67 33 -69 158 -94 225 -46 51 38 62 75 59 213 l-3 125 -43 3 c-24 2 -49 -1 -55 -7 -8 -6 -20 -5 -37 4 -35 20 -90 18 -126 -4z m154 -88 c5 -31 -37 -51 -73 -35 -24 11 -33 40 -18 56 4 4 25 6 48 4 33 -2 41 -7 43 -25z"/>
<path d="M4983 3325 c-89 -45 -125 -150 -84 -240 34 -76 114 -122 197 -112 81 9 144 73 157 160 10 66 9 67 -129 67 -76 0 -124 4 -124 10 0 6 9 19 21 31 22 22 22 22 146 1 69 -11 84 -2 57 34 -35 48 -68 65 -130 71 -50 4 -67 0 -111 -22z m161 -220 c-14 -36 -93 -48 -126 -18 -30 27 -21 33 57 33 63 0 73 -2 69 -15z"/>
<path d="M5595 3332 c-65 -30 -115 -105 -115 -172 0 -71 56 -149 125 -176 124 -47 255 43 255 176 0 137 -143 229 -265 172z m135 -112 c13 -13 20 -33 20 -60 0 -53 -27 -80 -79 -80 -31 0 -44 6 -60 26 -45 57 -11 134 60 134 26 0 46 -7 59 -20z"/>
<path d="M3015 3328 c-3 -7 -4 -119 -3 -248 l3 -235 133 -3 c124 -2 138 -1 187 22 58 26 105 80 126 143 15 46 7 159 -14 199 -21 40 -71 89 -116 111 -48 24 -308 33 -316 11z m270 -112 c67 -28 96 -125 60 -200 -23 -48 -61 -66 -144 -66 l-71 0 0 140 0 140 60 0 c33 0 76 -6 95 -14z"/>
<path d="M4060 3161 l0 -181 49 0 c28 0 53 4 56 10 4 6 18 4 37 -6 40 -21 102 -13 134 17 32 30 46 104 42 229 l-3 105 -52 3 -53 3 0 -120 c0 -95 -3 -123 -16 -135 -19 -19 -60 -21 -71 -3 -4 6 -10 66 -13 132 l-5 120 -52 3 -53 3 0 -180z"/>
<path d="M5312 3083 l3 -258 50 0 50 0 0 255 0 255 -53 3 -52 3 2 -258z"/>
<path d="M3524 3039 c-3 -6 8 -24 25 -39 38 -35 39 -48 4 -52 -26 -3 -28 -6 -28 -53 l0 -50 58 -3 57 -3 0 66 c0 38 -6 78 -14 94 -21 40 -86 66 -102 40z"/>
</g>


</svg>